<?xml version="1.0" encoding="utf-8"?>
<svg xmlns="http://www.w3.org/2000/svg" viewBox="0 0 346 400">
  <defs>
    <clipPath id="clip-wood">
      <polygon points="173,14 332,106 332,294 173,386 14,294 14,106"/>
    </clipPath>
    <linearGradient id="g-wood" x1="0" y1="0" x2="0" y2="1">
      <stop offset="0" stop-color="#1aad2e"/>
      <stop offset="1" stop-color="#0a4d14"/>
    </linearGradient>
    <linearGradient id="shade-wood" x1="0" y1="0" x2="0" y2="1">
      <stop offset="0.5" stop-color="#000" stop-opacity="0"/>
      <stop offset="1" stop-color="#000" stop-opacity="0.28"/>
    </linearGradient>
  </defs>
  <polygon points="173,0 346,100 346,300 173,400 0,300 0,100" fill="#151313"/>
  <g clip-path="url(#clip-wood)">
    <rect width="346" height="400" fill="url(#g-wood)"/>
    <!-- canopy from above, denser toward the rim so it reads around the number token -->
    <g fill="#0d6b1c">
      <circle cx="50" cy="130" r="46"/>
      <circle cx="120" cy="70" r="42"/>
      <circle cx="210" cy="58" r="40"/>
      <circle cx="290" cy="118" r="48"/>
      <circle cx="40" cy="230" r="44"/>
      <circle cx="310" cy="240" r="46"/>
      <circle cx="90" cy="330" r="50"/>
      <circle cx="180" cy="350" r="46"/>
      <circle cx="270" cy="328" r="48"/>
    </g>
    <g fill="#119822">
      <circle cx="95" cy="150" r="38"/>
      <circle cx="173" cy="100" r="36"/>
      <circle cx="250" cy="145" r="40"/>
      <circle cx="80" cy="250" r="36"/>
      <circle cx="173" cy="270" r="42"/>
      <circle cx="265" cy="255" r="38"/>
      <circle cx="140" cy="200" r="34"/>
      <circle cx="210" cy="210" r="32"/>
    </g>
    <g fill="#24c43a" opacity="0.55">
      <circle cx="70" cy="110" r="18"/>
      <circle cx="160" cy="78" r="16"/>
      <circle cx="248" cy="108" r="18"/>
      <circle cx="55" cy="210" r="14"/>
      <circle cx="300" cy="200" r="16"/>
      <circle cx="120" cy="300" r="18"/>
      <circle cx="230" cy="305" r="16"/>
    </g>
    <g fill="#083d10">
      <rect x="64" y="168" width="8" height="22" rx="2"/>
      <rect x="164" y="132" width="8" height="22" rx="2"/>
      <rect x="246" y="178" width="8" height="22" rx="2"/>
      <rect x="96" y="278" width="7" height="18" rx="2"/>
      <rect x="248" y="286" width="7" height="18" rx="2"/>
    </g>
    <rect width="346" height="400" fill="url(#shade-wood)"/>
  </g>
  <polygon points="173,14 332,106 332,294 173,386 14,294 14,106" fill="none" stroke="#ffffff" stroke-opacity="0.12" stroke-width="2"/>
</svg>
